{"title":"T.I. Ft. Doe B, Birdman, Young Dro &amp; B.o.B - Kemosabe [Expli","uid":9370864,"size":93991647,"categoryP":"video","categoryS":"music_videos","magnet":"?xt=urn:btih:a6375538b585fbcd2adedeae242969744a5c1636&amp;dn=T.I.+Ft.+Doe+B%2C+Birdman%2C+Young+Dro+%26amp%3B+B.o.B+-+Kemosabe+%5BExpli&amp;tr=udp%3A%2F%2Ftracker.openbittorrent.com%3A80&amp;tr=udp%3A%2F%2Fopen.demonii.com%3A1337&amp;tr=udp%3A%2F%2Ftracker.coppersurfer.tk%3A6969&amp;tr=udp%3A%2F%2Fexodus.desync.com%3A6969","seeders":0,"leechers":1,"uploader":"Sbyky","files":1,"time":1387522990,"description":"[IMG]http://cdn.piczend.com/images/u39RfZdg/1387503246_kemosabeexplicit.jpg[/IMG]\n\nGeneral\nComplete name                            : T.I. Ft. Doe B, Birdman, Young Dro &amp; B.o.B - Kemosabe [Explicit] 1080p [Sbyky].mp4\nFormat                                   : MPEG-4\nFormat profile                           : Base Media\nCodec ID                                 : isom\nFile size                                : 89.6 MiB\nDuration                                 : 4mn 49s\nOverall bit rate mode                    : Variable\nOverall bit rate                         : 2 598 Kbps\nEncoded date                             : UTC 2013-12-03 03:54:27\nTagged date                              : UTC 2013-12-03 03:54:27\n\nVideo\nID                                       : 1\nFormat                                   : AVC\nFormat/Info                              : Advanced Video Codec\nFormat profile                           : &lt;a class=&quot;__cf_email__&quot; href=&quot;/cdn-cgi/l/email-protection&quot; data-cfemail=&quot;753d1c121d3539415b45&quot;&gt;[email&amp;#160;protected]&lt;/a&gt;&lt;script data-cfhash='f9e31' type=&quot;text/javascript&quot;&gt;\n/* &lt;![CDATA[ */!function(){try{var t=&quot;currentScript&quot;in document?document.currentScript:function(){for(var t=document.getElementsByTagName(&quot;script&quot;),e=t.length;e--;)if(t[e].getAttribute(&quot;data-cfhash&quot;))return t[e]}();if(t&amp;&amp;t.previousSibling){var e,r,n,i,c=t.previousSibling,a=c.getAttribute(&quot;data-cfemail&quot;);if(a){for(e=&quot;&quot;,r=parseInt(a.substr(0,2),16),n=2;a.length-n;n+=2)i=parseInt(a.substr(n,2),16)^r,e+=String.fromCharCode(i);e=document.createTextNode(e),c.parentNode.replaceChild(e,c)}t.parentNode.removeChild(t);}}catch(u){}}()/* ]]&gt; */&lt;/script&gt;\nFormat settings, CABAC                   : Yes\nFormat settings, ReFrames                : 3 frames\nCodec ID                                 : avc1\nCodec ID/Info                            : Advanced Video Coding\nDuration                                 : 4mn 49s\nDuration_LastFrame                       : -33ms\nBit rate                                 : 2 470 Kbps\nWidth                                    : 1 920 pixels\nHeight                                   : 1 080 pixels\nDisplay aspect ratio                     : 16:9\nFrame rate mode                          : Constant\nFrame rate                               : 29.970 fps\nColor space                              : YUV\nChroma subsampling                       : 4:2:0\nBit depth                                : 8 bits\nScan type                                : Progressive\nBits/(Pixel*Frame)                       : 0.040\nStream size                              : 85.2 MiB (95%)\nEncoded date                             : UTC 2013-12-03 03:54:27\nTagged date                              : UTC 2013-12-03 03:54:27\n\nAudio\nID                                       : 2\nFormat                                   : AAC\nFormat/Info                              : Advanced Audio Codec\nFormat profile                           : LC\nCodec ID                                 : 40\nDuration                                 : 4mn 49s\nBit rate mode                            : Variable\nBit rate                                 : 126 Kbps\nChannel(s)                               : 2 channels\nChannel positions                        : Front: L R\nSampling rate                            : 44.1 KHz\nCompression mode                         : Lossy\nDelay relative to video                  : 33ms\nStream size                              : 4.33 MiB (5%)\nEncoded date                             : UTC 2013-12-03 03:53:21\nTagged date                              : UTC 2013-12-03 03:53:21\n\nShared By Sbyky\n[IMG]http://cdn.piczend.com/images/X3Ag13N3/1379453786_saythanks.gif[/IMG]\n[IMG]http://cdn.piczend.com/images/gGqhX2S8/1379453780_keepseeding.gif[/IMG]","torrent":{"xt":"urn:btih:a6375538b585fbcd2adedeae242969744a5c1636","amp;dn":"T.I.+Ft.+Doe+B%2C+Birdman%2C+Young+Dro+%26amp%3B+B.o.B+-+Kemosabe+%5BExpli","amp;tr":["udp%3A%2F%2Ftracker.openbittorrent.com%3A80","udp%3A%2F%2Fopen.demonii.com%3A1337","udp%3A%2F%2Ftracker.coppersurfer.tk%3A6969","udp%3A%2F%2Fexodus.desync.com%3A6969"],"infoHash":"a6375538b585fbcd2adedeae242969744a5c1636","infoHashBuffer":{"type":"Buffer","data":[166,55,85,56,181,133,251,205,42,222,222,174,36,41,105,116,74,92,22,54]},"announce":[],"urlList":[]}}